<?xml version="1.0" standalone="no"?>
<!DOCTYPE svg PUBLIC "-//W3C//DTD SVG 20010904//EN"
 "http://www.w3.org/TR/2001/REC-SVG-20010904/DTD/svg10.dtd">
<svg version="1.0" xmlns="http://www.w3.org/2000/svg"
 width="120.000000pt" height="120.000000pt" viewBox="0 0 120.000000 120.000000"
 preserveAspectRatio="xMidYMid meet">
<metadata>
Created by potrace 1.14, written by Peter Selinger 2001-2017
</metadata>
<g transform="translate(0.000000,120.000000) scale(0.100000,-0.100000)"
fill="#000000" stroke="none">
<path d="M367 967 c-54 -13 -170 -153 -203 -244 -13 -36 -29 -72 -35 -79 -6
-8 -8 -14 -5 -14 4 0 2 -9 -4 -20 -6 -10 -13 -45 -16 -77 -3 -32 -12 -68 -20
-80 -8 -13 -11 -23 -7 -23 5 0 4 -4 -2 -8 -15 -11 -55 -70 -55 -81 0 -29 150
-119 181 -109 6 2 31 40 55 83 42 78 44 80 81 81 59 1 101 -14 139 -51 45 -44
69 -51 100 -30 24 15 27 15 44 0 25 -23 55 -14 104 29 45 41 75 52 135 52 l44
-1 42 -80 c23 -44 49 -81 58 -83 24 -5 119 44 151 77 l29 30 -21 33 c-46 72
-59 105 -66 162 -3 32 -19 88 -35 125 -15 36 -31 78 -34 92 -6 25 -23 48 -113
156 -44 51 -93 72 -164 69 -49 -3 -57 -7 -95 -47 -23 -25 -45 -51 -48 -59 -6
-13 -8 -13 -14 0 -3 8 -25 34 -48 59 -38 40 -47 44 -91 46 -27 1 -66 -3 -87
-8z m143 -157 c11 -18 59 -15 78 3 14 15 16 15 27 0 13 -18 67 -21 73 -4 6 17
74 43 97 37 17 -5 65 -88 69 -121 3 -20 -14 -99 -23 -104 -4 -4 -16 -21 -25
-39 -21 -40 -64 -82 -111 -107 -19 -11 -35 -23 -35 -27 0 -5 -5 -8 -11 -8 -7
0 -20 -10 -31 -22 -20 -23 -20 -23 -36 -3 -10 11 -40 35 -69 53 -67 43 -97 74
-132 136 -28 51 -45 118 -33 131 4 4 7 10 8 13 4 25 41 92 52 92 6 0 12 4 12
10 0 12 80 -24 90 -40z"/>
</g>
</svg>
