<?xml version="1.0" standalone="no"?>
<!DOCTYPE svg PUBLIC "-//W3C//DTD SVG 20010904//EN"
 "http://www.w3.org/TR/2001/REC-SVG-20010904/DTD/svg10.dtd">
<svg version="1.0" xmlns="http://www.w3.org/2000/svg"
 width="428.000000pt" height="428.000000pt" viewBox="0 0 428.000000 428.000000"
 preserveAspectRatio="xMidYMid meet">
<metadata>
Created by potrace 1.14, written by Peter Selinger 2001-2017
</metadata>
<g transform="translate(0.000000,428.000000) scale(0.100000,-0.100000)"
fill="#000000" stroke="none">
<path d="M2055 4268 c-344 -28 -655 -253 -796 -574 -30 -69 -35 -75 -57 -69
-47 12 -238 5 -322 -11 -395 -75 -703 -348 -823 -729 -68 -215 -66 -448 7
-661 89 -261 296 -498 537 -615 l47 -22 -1 -281 0 -281 1491 -3 c1190 -2 1492
0 1493 10 0 7 0 133 0 279 1 146 4 270 7 275 4 5 25 17 47 27 74 34 200 125
269 194 155 154 260 351 300 563 16 84 22 261 11 335 -69 474 -418 832 -892
915 -68 12 -279 15 -307 4 -13 -5 -19 0 -23 17 -15 57 -97 200 -158 277 -195
242 -513 377 -830 350z"/>
<path d="M649 688 c0 -7 0 -50 1 -96 4 -253 43 -390 135 -471 71 -62 132 -83
313 -106 68 -9 1964 -9 2074 0 211 17 326 74 392 194 38 71 55 163 63 339 l6
152 -1491 0 c-1187 0 -1492 -3 -1493 -12z"/>
</g>
</svg>
